<svg width="203" height="40" viewBox="0 0 203 40" fill="none" xmlns="http://www.w3.org/2000/svg">
<path d="M83.392 8.66515C82.5283 9.19453 81.3999 9.75177 80.0068 10.3369L79.8396 34.8276L73.9468 35.371L60.7401 15.1013L61.367 20.2418V32.1529L65.0448 32.6962L65.003 34.8276H53.5099L53.2592 33.4903C54.0672 32.9609 55.2513 32.3897 56.8116 31.7767V9.91894L53.8861 9.45922L53.9278 7.32777H63.2059L63.1641 7.36956L76.0782 27.5556L75.4513 22.2479V10.0443L71.3974 9.45922L71.4392 7.32777H83.1412L83.392 8.66515Z" fill="#F5F3C2"/>
<path d="M83.6127 24.7555C83.6127 21.6071 84.574 19.0438 86.4964 17.0656C88.4468 15.0874 90.8708 14.0983 93.7684 14.0983C96.6661 14.0983 99.0483 15.1152 100.915 17.1492C102.81 19.1552 103.757 21.7603 103.757 24.9645C103.757 28.1965 102.824 30.7876 100.957 32.738C99.118 34.6883 96.7636 35.6635 93.8938 35.6635C90.9683 35.6635 88.5164 34.6326 86.5382 32.5708C84.5879 30.509 83.6127 27.9039 83.6127 24.7555ZM95.6073 32.0275C96.9169 31.1081 97.5716 28.9209 97.5716 25.466C97.5716 23.1813 97.2233 21.3145 96.5268 19.8657C95.8581 18.389 94.8272 17.6507 93.4341 17.6507C92.5982 17.6507 91.8878 17.8457 91.3027 18.2358C90.2996 19.5732 89.7981 21.7185 89.7981 24.6719C89.7981 26.9009 90.1603 28.7258 90.8847 30.1468C91.6091 31.5399 92.7097 32.2365 94.1864 32.2365C94.6879 32.2365 95.1616 32.1668 95.6073 32.0275Z" fill="#F5F3C2"/>
<path d="M126.288 16.8148L124.115 17.9014C121.19 25.5914 118.989 31.1916 117.512 34.7023C116.537 35.0087 115.339 35.162 113.918 35.162C112.97 35.162 112.107 35.0923 111.326 34.953L105.35 18.2776L102.801 17.1492V14.9759H113.667L113.792 16.8148L111.744 17.8596L114.294 25.9257L114.879 29.5617H115.631C116.467 26.1904 117.345 22.3176 118.264 17.9432L116.133 17.1492L116.174 14.9759H126.163L126.288 16.8148Z" fill="#F5F3C2"/>
<path d="M142.24 24.8809L131.582 24.7555C131.694 26.8173 132.335 28.4194 133.505 29.5617C134.675 30.7041 136.166 31.2752 137.977 31.2752C139.481 31.2752 141.264 30.7737 143.326 29.7707L144.204 31.9857L137.642 35.371L136.305 35.4545C133.24 35.4545 130.719 34.4933 128.74 32.5708C126.762 30.6205 125.773 28.1547 125.773 25.1734C125.773 22.0529 126.776 19.4338 128.782 17.3163C130.788 15.1709 133.226 14.0983 136.096 14.0983C138.604 14.0983 140.652 14.8784 142.24 16.4387C143.856 17.9711 144.664 19.9772 144.664 22.4569L142.24 24.8809ZM134.633 17.2745C133.184 18.1104 132.251 19.6428 131.833 21.8718L139.063 21.4956C138.868 20.2976 138.353 19.2945 137.517 18.4865C136.709 17.6785 135.748 17.2745 134.633 17.2745Z" fill="#F5F3C2"/>
<path d="M155.295 31.526C156.604 31.9439 157.621 32.3619 158.346 32.7798L158.179 34.8276H146.184L146.059 33.4067C146.894 32.933 147.953 32.4733 149.235 32.0275V7.87108L146.1 7.53673L145.808 5.53066C148.204 4.61121 150.684 4.12363 153.247 4.0679L155.295 5.9068V31.526Z" fill="#F5F3C2"/>
<path d="M189.732 32.6962L189.69 34.8276H176.525L176.274 33.4903C177.054 33.0166 178.266 32.4315 179.91 31.735L178.155 27.2213H168.208L166.369 32.1529L170.214 32.6962L170.172 34.8276H158.805L158.554 33.4903C159.39 32.9609 160.546 32.4036 162.023 31.8185L171.259 9.12487L170.758 7.82928L176.232 6.32473L186.764 32.2783L189.732 32.6962ZM176.943 24.045L173.182 14.1818L169.42 24.045H176.943Z" fill="#F5F3C2"/>
<path d="M203 32.6962L202.958 34.8276H189.501L189.25 33.4903C190.058 32.9609 191.242 32.3897 192.802 31.7767V9.91894L189.584 9.45922L189.626 7.32777H202.415L202.666 8.66515C201.635 9.27811 200.465 9.84929 199.155 10.3787V32.1529L203 32.6962Z" fill="#F5F3C2"/>
<path fill-rule="evenodd" clip-rule="evenodd" d="M5.89418 31.1173C4.51814 28.8707 2.83212 27 0.836131 25.7099C0.26793 25.3426 0.124452 24.5271 0.540438 23.9935C4.15593 19.356 9.79294 7.20752 12.7415 0.590996C13.181 -0.395095 14.6883 -0.072575 14.6883 1.007V18.6289C13.1242 19.322 12.0332 20.888 12.0332 22.7089C12.0332 23.3739 12.1787 24.0049 12.4397 24.5719L5.89418 31.1173ZM7.34675 33.8702C8.03773 35.393 8.61427 37.0257 9.07635 38.7222C9.19588 39.1611 9.59101 39.4713 10.0459 39.4713H16.4937H22.9416C23.3964 39.4713 23.7916 39.1611 23.9111 38.7222C24.3732 37.0257 24.9497 35.393 25.6407 33.8702L22.211 30.4405L19.3551 33.2964C19.4281 33.5544 19.4672 33.8266 19.4672 34.108C19.4672 35.7503 18.1358 37.0817 16.4935 37.0817C14.8512 37.0817 13.5198 35.7503 13.5198 34.108C13.5198 32.4657 14.8512 31.1343 16.4935 31.1343C16.7448 31.1343 16.9888 31.1655 17.2219 31.2242L20.1083 28.3378L18.4762 26.7057C17.879 27.0025 17.2058 27.1694 16.4937 27.1694C15.7816 27.1694 15.1084 27.0025 14.5112 26.7057L7.34675 33.8702ZM27.0933 31.1173C28.4693 28.8707 30.1553 27 32.1513 25.7099C32.7195 25.3426 32.863 24.5271 32.447 23.9935C28.8315 19.356 23.1945 7.20752 20.2459 0.590996C19.8065 -0.395095 18.2992 -0.072575 18.2992 1.007V18.6289C19.8632 19.322 20.9542 20.888 20.9542 22.7089C20.9542 23.3739 20.8087 24.0049 20.5478 24.5718L27.0933 31.1173Z" fill="#F5F3C2"/>
</svg>
